<?xml version="1.0" encoding="UTF-8"?>
<svg width="64px" height="64px" viewBox="0 0 64 64" version="1.1" xmlns="http://www.w3.org/2000/svg" xmlns:xlink="http://www.w3.org/1999/xlink">
    <!-- Generator: Sketch 49.3 (51167) - http://www.bohemiancoding.com/sketch -->
    <title>cal@1x</title>
    <desc>Created with Sketch.</desc>
    <defs></defs>
    <g id="cal" stroke="none" stroke-width="1" fill="none" fill-rule="evenodd">
        <rect id="Rectangle-11" fill="#F2554A" x="10" y="10" width="44" height="44" rx="4"></rect>
        <rect id="Rectangle-2" fill="#FFFFFF" x="14" y="20" width="36" height="30"></rect>
        <circle id="Oval-2" fill="#FFFFFF" cx="41" cy="15" r="2"></circle>
        <circle id="Oval-2" fill="#FFFFFF" cx="24" cy="15" r="2"></circle>
        <path d="M26.082,33.468 L26.742,33.468 C28.084,33.424 28.722,32.544 28.722,31.246 C28.722,30.146 27.776,29.266 26.434,29.266 C25.378,29.266 24.674,29.816 24.102,30.41 C23.882,30.63 23.596,30.74 23.332,30.74 C22.716,30.74 22.1,30.168 22.1,29.508 C22.1,28.276 24.63,27 26.544,27 C29.338,27 31.12,28.782 31.12,31.246 C31.12,32.742 30.416,33.908 29.338,34.48 C31.912,35.668 31.956,38.308 31.956,38.726 C31.956,41.828 29.58,44.028 26.258,44.028 C22.98,44.028 21,42.092 21,41.058 C21,40.354 21.638,39.738 22.298,39.738 C22.584,39.738 22.892,39.87 23.156,40.156 C24.146,41.256 24.85,41.674 26.368,41.674 C27.952,41.674 29.536,40.508 29.536,38.682 C29.536,36.438 28.194,35.756 26.632,35.756 L26.434,35.756 C26.302,35.756 26.192,35.778 26.104,35.778 C25.422,35.778 24.938,35.184 24.938,34.612 C24.938,34.04 25.4,33.468 26.082,33.468 Z M41.46,42.73 C41.46,43.5 40.822,43.896 40.184,43.896 C39.546,43.896 38.886,43.478 38.886,42.686 C38.886,40.64 38.974,35.954 38.974,33.05 C38.974,29.97 38.864,29.728 38.116,29.728 L37.808,29.728 C37.06,29.728 36.686,29.156 36.686,28.562 C36.686,27.924 37.082,27.286 37.83,27.22 C38.27,27.198 38.446,27.198 38.908,27.198 C40.426,27.198 41.394,28.1 41.46,29.552 C41.482,29.838 41.482,30.234 41.482,30.718 C41.482,32.478 41.416,35.426 41.416,38.572 C41.416,39.936 41.416,41.322 41.46,42.686 L41.46,42.73 Z" id="31" fill="#78111A"></path>
    </g>
</svg>