<?xml version="1.0" encoding="UTF-8"?>
<svg width="64px" height="64px" viewBox="0 0 64 64" version="1.1" xmlns="http://www.w3.org/2000/svg" xmlns:xlink="http://www.w3.org/1999/xlink">
    <!-- Generator: Sketch 49.3 (51167) - http://www.bohemiancoding.com/sketch -->
    <title>crowd@1x</title>
    <desc>Created with Sketch.</desc>
    <defs></defs>
    <g id="crowd" stroke="none" stroke-width="1" fill="none" fill-rule="evenodd">
        <g id="Group-2" transform="translate(14.000000, 21.000000)">
            <g id="Group" fill="#D8D8D8">
                <path d="M8,10 C5.23857625,10 3,7.76142375 3,5 C3,2.23857625 5.23857625,0 8,0 C10.7614237,0 13,2.23857625 13,5 C13,7.76142375 10.7614237,10 8,10 Z M5.62749074,11.40237 C6.33340629,11.7836009 7.14143179,12 8,12 C8.85856821,12 9.66659371,11.7836009 10.3725093,11.40237 C13.4225016,12.4663973 15.6914312,15.5279416 15.9709509,19.2276124 C14.1447995,20.9121231 11.2538907,22 8,22 C4.74610933,22 1.85520045,20.9121231 0.0290490938,19.2276124 C0.308568773,15.5279416 2.57749841,12.4663973 5.62749074,11.40237 Z" id="Combined-Shape"></path>
            </g>
            <g id="Group" transform="translate(20.000000, 0.000000)" fill="#D8D8D8">
                <path d="M8,10 C5.23857625,10 3,7.76142375 3,5 C3,2.23857625 5.23857625,0 8,0 C10.7614237,0 13,2.23857625 13,5 C13,7.76142375 10.7614237,10 8,10 Z M5.62749074,11.40237 C6.33340629,11.7836009 7.14143179,12 8,12 C8.85856821,12 9.66659371,11.7836009 10.3725093,11.40237 C13.4225016,12.4663973 15.6914312,15.5279416 15.9709509,19.2276124 C14.1447995,20.9121231 11.2538907,22 8,22 C4.74610933,22 1.85520045,20.9121231 0.0290490938,19.2276124 C0.308568773,15.5279416 2.57749841,12.4663973 5.62749074,11.40237 Z" id="Combined-Shape"></path>
            </g>
            <g id="Group" transform="translate(8.000000, 3.000000)" fill="#3CA9CA">
                <ellipse id="Oval-20" cx="10" cy="6.36363636" rx="6.25" ry="6.36363636"></ellipse>
                <path d="M7.03436343,13.5121073 C7.91675786,13.9973103 8.92678974,14.2727273 10,14.2727273 C11.0732103,14.2727273 12.0832421,13.9973103 12.9656366,13.5121073 C16.778127,14.8663238 19.614289,18.7628348 19.9636886,23.4715067 C17.6809994,25.6154295 14.0673633,27 10,27 C5.93263666,27 2.31900057,25.6154295 0.0363113672,23.4715067 C0.385710966,18.7628348 3.22187301,14.8663238 7.03436343,13.5121073 Z" id="Combined-Shape"></path>
            </g>
        </g>
        <circle id="Oval-2" stroke="#F2554A" stroke-width="4" cx="32" cy="32" r="19"></circle>
        <path d="M30,6 L34,6 L34,16 L30,16 L30,6 Z M30,48 L34,48 L34,58 L30,58 L30,48 Z M6,34 L6,30 L16,30 L16,34 L6,34 Z M48,34 L48,30 L58,30 L58,34 L48,34 Z" id="Combined-Shape" fill="#F2554A"></path>
    </g>
</svg>