<?xml version="1.0" encoding="UTF-8"?>
<svg width="64px" height="64px" viewBox="0 0 64 64" version="1.1" xmlns="http://www.w3.org/2000/svg" xmlns:xlink="http://www.w3.org/1999/xlink">
    <!-- Generator: Sketch 49.3 (51167) - http://www.bohemiancoding.com/sketch -->
    <title>database@1x</title>
    <desc>Created with Sketch.</desc>
    <defs>
        <circle id="path-1" cx="32" cy="52" r="4"></circle>
    </defs>
    <g id="database" stroke="none" stroke-width="1" fill="none" fill-rule="evenodd">
        <rect id="Rectangle-2" fill="#686B73" x="31" y="44" width="2" height="6"></rect>
        <g id="Group" transform="translate(12.000000, 11.000000)">
            <rect id="Rectangle-15" fill="#556080" x="0" y="0" width="40" height="10" rx="2"></rect>
            <circle id="Oval-2" fill="#BBCCFF" cx="5" cy="5" r="2"></circle>
            <circle id="Oval-22" fill="#BBCCFF" cx="21" cy="3" r="1"></circle>
            <circle id="Oval-22" fill="#BBCCFF" cx="22" cy="6" r="1"></circle>
            <circle id="Oval-22" fill="#BBCCFF" cx="25" cy="3" r="1"></circle>
            <circle id="Oval-22" fill="#BBCCFF" cx="26" cy="6" r="1"></circle>
            <circle id="Oval-22" fill="#BBCCFF" cx="29" cy="3" r="1"></circle>
            <circle id="Oval-22" fill="#BBCCFF" cx="30" cy="6" r="1"></circle>
            <circle id="Oval-22" fill="#BBCCFF" cx="33" cy="3" r="1"></circle>
            <circle id="Oval-22" fill="#BBCCFF" cx="34" cy="6" r="1"></circle>
        </g>
        <g id="Group" transform="translate(12.000000, 23.000000)">
            <rect id="Rectangle-15" fill="#556080" x="0" y="0" width="40" height="10" rx="2"></rect>
            <circle id="Oval-2" fill="#BBCCFF" cx="5" cy="5" r="2"></circle>
            <circle id="Oval-22" fill="#BBCCFF" cx="21" cy="3" r="1"></circle>
            <circle id="Oval-22" fill="#BBCCFF" cx="22" cy="6" r="1"></circle>
            <circle id="Oval-22" fill="#BBCCFF" cx="25" cy="3" r="1"></circle>
            <circle id="Oval-22" fill="#BBCCFF" cx="26" cy="6" r="1"></circle>
            <circle id="Oval-22" fill="#BBCCFF" cx="29" cy="3" r="1"></circle>
            <circle id="Oval-22" fill="#BBCCFF" cx="30" cy="6" r="1"></circle>
            <circle id="Oval-22" fill="#BBCCFF" cx="33" cy="3" r="1"></circle>
            <circle id="Oval-22" fill="#BBCCFF" cx="34" cy="6" r="1"></circle>
        </g>
        <rect id="Rectangle-3" fill="#686B73" x="11" y="51" width="42" height="2" rx="1"></rect>
        <g id="Group" transform="translate(12.000000, 35.000000)">
            <rect id="Rectangle-15" fill="#556080" x="0" y="0" width="40" height="10" rx="2"></rect>
            <circle id="Oval-2" fill="#BBCCFF" cx="5" cy="5" r="2"></circle>
            <circle id="Oval-22" fill="#BBCCFF" cx="21" cy="3" r="1"></circle>
            <circle id="Oval-22" fill="#BBCCFF" cx="22" cy="6" r="1"></circle>
            <circle id="Oval-22" fill="#BBCCFF" cx="25" cy="3" r="1"></circle>
            <circle id="Oval-22" fill="#BBCCFF" cx="26" cy="6" r="1"></circle>
            <circle id="Oval-22" fill="#BBCCFF" cx="29" cy="3" r="1"></circle>
            <circle id="Oval-22" fill="#BBCCFF" cx="30" cy="6" r="1"></circle>
            <circle id="Oval-22" fill="#BBCCFF" cx="33" cy="3" r="1"></circle>
            <circle id="Oval-22" fill="#BBCCFF" cx="34" cy="6" r="1"></circle>
        </g>
        <rect id="Rectangle-16" fill="#737D9B" x="28" y="21" width="8" height="2"></rect>
        <rect id="Rectangle-16" fill="#737D9B" x="28" y="33" width="8" height="2"></rect>
        <g id="Oval-23">
            <use fill="#BBCCFF" fill-rule="evenodd" xlink:href="#path-1"></use>
            <circle stroke="#686B73" stroke-width="2" cx="32" cy="52" r="3"></circle>
        </g>
    </g>
</svg>