<svg xmlns="http://www.w3.org/2000/svg" viewBox="0 0 128 128"><defs><style>.a{fill:#d8d8d8;}.b{fill:#4a4a4a;}</style></defs><title>Artboard 6</title><path class="a" d="M30.06,47a17,17,0,1,1,17-17A17,17,0,0,1,30.06,47ZM22,51.79a17,17,0,0,0,16.11,0c10.35,3.61,18,14,19,26.56-6.2,5.72-16,9.41-27,9.41S9.2,84.07,3,78.35C4,65.79,11.65,55.4,22,51.79Z"/><path class="a" d="M97.94,47a17,17,0,1,1,17-17A17,17,0,0,1,97.94,47Zm-8,4.76a17,17,0,0,0,16.11,0c10.35,3.61,18,14,19,26.56-6.2,5.72-16,9.41-27.06,9.41s-20.85-3.69-27-9.41C71.84,65.79,79.54,55.4,89.89,51.79Z"/><ellipse class="b" cx="64" cy="44.87" rx="21.21" ry="21.6"/><path class="b" d="M53.93,69.13a20.94,20.94,0,0,0,20.14,0C87,73.73,96.63,87,97.82,102.94c-7.75,7.28-20,12-33.82,12s-26.07-4.7-33.82-12C31.37,87,41,73.73,53.93,69.13Z"/></svg>