<svg xmlns="http://www.w3.org/2000/svg" viewBox="0 0 128 128"><defs><style>.a{fill:#012840;}</style></defs><title>Artboard 3</title><path class="a" d="M64,124a60,60,0,1,1,60-60A60.07,60.07,0,0,1,64,124ZM64,10.53A53.47,53.47,0,1,0,117.47,64,53.54,53.54,0,0,0,64,10.53Z"/><path class="a" d="M84.69,90.13c2.16,0,3.33,1.62,3.33,3.78s-1.17,4-3.33,4H43.74c-3.42,0-5.4-1.8-5.4-5.4,0-3.15,2-7.65,3.42-10.26C45,76.09,50.4,70.51,58.86,65l6.21-4c8.82-5.76,12.6-9.27,12.6-16.11,0-6.66-5.58-10.8-14-10.8-10.53,0-13.86,6-15.48,12.33a3.78,3.78,0,0,1-4,2.79,6.81,6.81,0,0,1-1.35-.09c-2-.45-3.42-1.71-3.42-3.69a7,7,0,0,1,.18-1.35,23.15,23.15,0,0,1,5.94-11c4.05-4,9.72-6.48,18.54-6.48,13.68,0,22.41,7.11,22.41,18.54,0,11-6.93,15.93-15.12,21.06l-5.94,3.6c-10,6.3-15.75,12.24-17.91,20.34Z"/></svg>