<svg xmlns="http://www.w3.org/2000/svg" viewBox="0 0 128 128"><defs><style>.a{fill:#012840;}</style></defs><title>Artboard 5</title><path class="a" d="M64,124a60,60,0,1,1,60-60A60.07,60.07,0,0,1,64,124ZM64,10.53A53.47,53.47,0,1,0,117.47,64,53.54,53.54,0,0,0,64,10.53Z"/><path class="a" d="M38.93,80.41c-3,0-5-1.62-5-4.77,0-3,.9-4.68,2.79-7.2L64.22,31c2.16-3,3.69-4.41,7.47-4.41,3.06,0,5,1.44,5,5V73h8.46c2.34,0,3.42,1.44,3.42,3.6s-1.08,3.78-3.42,3.78H76.73v14.4c0,2.61-1.71,3.69-4.14,3.69s-4-1.08-4-3.6V80.41Zm6.66-11.25a44.89,44.89,0,0,1-3.51,4c2-.18,4.14-.18,5.67-.18H68.54V49.9c0-4.23.27-9.9.72-14.85-2.07,3.42-4.14,6.75-6.93,10.62Z"/></svg>