<?xml version="1.0" encoding="UTF-8"?>
<svg width="64px" height="64px" viewBox="0 0 64 64" version="1.1" xmlns="http://www.w3.org/2000/svg" xmlns:xlink="http://www.w3.org/1999/xlink">
    <!-- Generator: Sketch 49.3 (51167) - http://www.bohemiancoding.com/sketch -->
    <title>question@1x</title>
    <desc>Created with Sketch.</desc>
    <defs></defs>
    <g id="question" stroke="none" stroke-width="1" fill="none" fill-rule="evenodd">
        <circle id="Oval-24" fill="#41B4D8" cx="32" cy="32" r="24"></circle>
        <g id="question.2" transform="translate(21.000000, 17.000000)" fill="#FFFFFF" fill-rule="nonzero">
            <path d="M10.835938,0.75 C8.570312,0.75 6.597656,1.21875 4.917969,2.15625 C3.394531,3.015625 2.007812,4.324219 0.757812,6.082031 C0.523438,6.394531 0.435547,6.736328 0.494141,7.107422 C0.552734,7.478516 0.738281,7.78125 1.050781,8.015625 L3.570312,9.949219 C3.882812,10.183594 4.224609,10.271484 4.595703,10.212891 C4.966797,10.154297 5.269531,9.96875 5.503906,9.65625 C6.363281,8.640625 7.085938,7.9375 7.671875,7.546875 C8.414062,7.039062 9.3125,6.785156 10.367188,6.785156 C11.34375,6.785156 12.242188,7.058594 13.0625,7.605469 C13.960938,8.152344 14.410156,8.855469 14.410156,9.714844 C14.410156,10.300781 14.15625,10.828125 13.648438,11.296875 C13.296875,11.648438 12.59375,12.117188 11.539062,12.703125 L11.421875,12.761719 C9.9375,13.582031 8.882812,14.304688 8.257812,14.929688 C7.242188,16.023438 6.734375,17.351562 6.734375,18.914062 L6.734375,19.5 C6.734375,19.890625 6.871094,20.222656 7.144531,20.496094 C7.417969,20.769531 7.75,20.90625 8.140625,20.90625 L12.359375,20.90625 C12.75,20.90625 13.082031,20.769531 13.355469,20.496094 C13.628906,20.222656 13.765625,19.890625 13.765625,19.5 L13.765625,19.148438 C13.765625,18.71875 14,18.308594 14.46875,17.917969 C14.742188,17.683594 15.289062,17.332031 16.109375,16.863281 C17.125,16.277344 17.886719,15.789062 18.394531,15.398438 C19.214844,14.734375 19.859375,13.992188 20.328125,13.171875 C20.875,12.195312 21.148438,11.0625 21.148438,9.773438 C21.148438,8.132812 20.621094,6.589844 19.566406,5.144531 C18.589844,3.816406 17.310547,2.751953 15.728516,1.951172 C14.146484,1.150391 12.515625,0.75 10.835938,0.75 Z M10.25,22.605469 C9.117188,22.605469 8.160156,23.005859 7.378906,23.806641 C6.597656,24.607422 6.207031,25.564453 6.207031,26.677734 C6.207031,27.791016 6.597656,28.748047 7.378906,29.548828 C8.160156,30.349609 9.117188,30.75 10.25,30.75 C11.382812,30.75 12.339844,30.349609 13.121094,29.548828 C13.902344,28.748047 14.292969,27.791016 14.292969,26.677734 C14.292969,25.564453 13.902344,24.607422 13.121094,23.806641 C12.339844,23.005859 11.382812,22.605469 10.25,22.605469 Z" id="Shape"></path>
        </g>
    </g>
</svg>