<svg xmlns="http://www.w3.org/2000/svg" viewBox="0 0 283.46 283.46"><defs><style>.a{fill:#b5b6b6;}</style></defs><title>Artboard 2</title><path class="a" d="M141.09,226.38c-23.21,0-46.42-.23-69.63.08-20.62.27-39-14.1-42.22-34.08a41.43,41.43,0,0,1-.42-6.5q0-69.42,0-138.86c0-18.79,16.59-36.62,35.37-38.2,5.69-.47,11.41-.75,17.12-.76q64.72-.09,129.44,0c16.44,0,29.53,6.65,38.31,20.88a37.32,37.32,0,0,1,5.41,19.83c.11,45.74.32,91.48,0,137.22-.19,23.39-18.79,39.85-40.86,40.35-12.15.27-24.31,0-36.46,0ZM154.06,58c8.88-8.81,19.43-12.43,31.19-12.15S207,51,215.19,59.68C227.68,73,229.41,96,218.76,111.08c-5.55,7.88-12.69,14-22,16.77-15.82,4.73-31.85.65-42.7-10.44m0,9.77H137.44v6.4c0,17.21,0,45.6,0,62.81,0,7.51-1.36,15.28-7.88,18.06h4.05c27,0,54.1.63,81.12-.19,17.48-.52,27.52-15.68,27.41-28.94-.4-45.21-.14-90.42-.18-135.63a30.57,30.57,0,0,0-.6-7.29C238,28.88,226.93,20.21,212.25,20c-18.16-.24-40,0-58.19-.11M141.87,20c-19.53,0-44.28,0-63.8,0a113.38,113.38,0,0,0-11.8.69A28.52,28.52,0,0,0,40.8,49q-.19,68.19,0,136.39A29.12,29.12,0,0,0,70,214.48c12,.14,24,.11,36,0,7.12-.05,19.21-5.53,19.19-18.35,0-8,0-12.51,0-15.37C104,200.53,77.63,192.94,65,176.34c-11.11-14.7-11.48-37.3,3-52.2,12.79-13.18,37.73-19.13,57.33-.76v-8.15h16.61m42.2,2.64c16.41-.18,29.89-13.94,29.6-30.23s-14.25-30.22-30-30C167.48,57.91,154,71.85,154,88.07S167.87,118,184.06,117.87Zm-58.81,34.46a28,28,0,0,0-28.1-28c-15.4.09-28.17,12.56-28,27.7A27.77,27.77,0,0,0,96.2,179.83C112.08,180.4,125.17,167.63,125.25,152.33Z"/><path class="a" d="M102.29,275.63a54.82,54.82,0,0,1-12.54,1.84q-10.84,0-16.43-5.7A19,19,0,0,1,67.72,258a20.73,20.73,0,0,1,6.1-14.87q6.09-6.32,16.9-6.31a41.07,41.07,0,0,1,9,.87l-1,7.14a36.79,36.79,0,0,0-8.88-1.24c-4.44,0-7.74,1.3-9.93,3.91A14.42,14.42,0,0,0,76.55,257a15,15,0,0,0,3.67,10.06q3.66,4.31,10.13,4.3A28.08,28.08,0,0,0,94.5,271a47.84,47.84,0,0,1-.47-6.58,46.47,46.47,0,0,0-.66-7.35h8.92q-.26,4.67-.26,9.37Q102,269.86,102.29,275.63Z"/><path class="a" d="M141.54,264.81q0,12-20.51,12-3.56,0-11.09-.18.42-9.12.41-20.57,0-11-.41-18.77h5.11q1.44,0,4.86-.09t5.34-.09q14,0,14,8.7,0,6.71-7.15,8.89v.45a13.62,13.62,0,0,1,6.65,2.85Q141.54,260.32,141.54,264.81Zm-10.8-16.59q0-5.41-7.06-5.41a33.14,33.14,0,0,0-5.77.45c.23,2,.35,5.53.35,10.49q1.2.06,2.52.06Q130.74,253.81,130.74,248.22Zm2.3,16.92q0-6-11-6-2.17,0-3.75.15,0,6.32.29,11.63a15.8,15.8,0,0,0,3.21.24c3.88,0,6.73-.44,8.54-1.34A4.79,4.79,0,0,0,133,265.14Z"/><path class="a" d="M175.57,270l-.25,6.64H148.51q.41-9.12.41-20.57,0-11-.41-18.77h25.58l-.35,6.62q-9.45-.48-17.14-.48.32,4.2.32,9.91,6.59,0,14.08-.34v6.32q-7.37-.3-14.08-.3c0,4.09.08,7.91.25,11.48Q165.81,270.52,175.57,270Z"/><path class="a" d="M215.74,276.65h-9.33q-3.65-10.69-5.6-13.2t-6.3-2.51c-1.22,0-2.39,0-3.5,0q0,7.77.28,15.68h-8.76q.42-9.12.41-20.57,0-11-.41-18.77H188q.95,0,4-.09c2-.06,3.86-.09,5.56-.09q14.46,0,14.46,9.49,0,7.51-8.25,10.48v.46q3.18.84,5.57,4.76T215.74,276.65Zm-11.81-27.8q0-6-8.07-6a29,29,0,0,0-5.23.42q.35,4.69.35,12.21c1.15,0,2.13.06,2.93.06Q203.93,255.53,203.93,248.85Z"/></svg>