<svg xmlns="http://www.w3.org/2000/svg" viewBox="0 0 595.28 283.46"><defs><style>.a{fill:#ffffff;}</style></defs><title>Artboard 3</title><path class="a" d="M110.72,240.28c-21,0-41.92-.2-62.88.07-18.61.25-35.26-12.73-38.12-30.76a38.33,38.33,0,0,1-.38-5.87q0-62.7,0-125.38c0-17,15-33.07,31.93-34.49,5.14-.44,10.31-.69,15.47-.69q58.42-.09,116.87,0c14.85,0,26.66,6,34.59,18.86a33.84,33.84,0,0,1,4.89,17.9c.1,41.3.28,82.6-.05,123.9-.16,21.12-17,36-36.89,36.44-11,.24-21.94,0-32.92,0Zm11.7-152c8-7.95,17.55-11.22,28.17-11s19.65,4.66,27,12.49c11.28,12,12.84,32.77,3.22,46.41-5,7.12-11.46,12.63-19.87,15.14-14.28,4.27-28.76.59-38.56-9.42m0,8.83h-15v5.77c0,15.54,0,41.17,0,56.71,0,6.79-1.23,13.8-7.12,16.31h3.66c24.42,0,48.85.57,73.25-.17,15.78-.47,24.85-14.16,24.74-26.13-.36-40.82-.12-81.64-.15-122.46a27.83,27.83,0,0,0-.55-6.59c-3-12.2-13-20-26.26-20.2-16.39-.22-36.14,0-52.54-.1m-11,0c-17.62,0-40,0-57.6,0a99.77,99.77,0,0,0-10.65.62,25.75,25.75,0,0,0-23,25.54q-.18,61.57,0,123.14a26.3,26.3,0,0,0,26.37,26.31c10.85.12,21.7.1,32.55,0,6.42-.05,17.34-5,17.32-16.58,0-7.25,0-11.29,0-13.87-19.21,17.84-43,11-54.44-4-10-13.27-10.38-33.68,2.68-47.13,11.55-11.9,34.07-17.28,51.76-.69v-7.36h15m38.11,2.38A27.14,27.14,0,0,0,176.24,115C176,100.3,163.37,87.73,149.1,88c-14.56.22-26.76,12.8-26.7,27.45S134.89,142.46,149.51,142.3Zm-53.1,31.12A25.28,25.28,0,0,0,71,148.15c-13.91.08-25.43,11.34-25.28,25a25.33,25.33,0,0,0,50.65.26Z"/><path class="a" d="M331.28,183.28q-16.84,4.13-28.15,4.13-24.33,0-36.88-12.78a42.65,42.65,0,0,1-12.56-31q0-19.2,13.69-33.37t37.94-14.18a91.81,91.81,0,0,1,20.09,2l-2.34,16a83.16,83.16,0,0,0-19.94-2.78q-14.92,0-22.28,8.79t-7.36,21.46a33.67,33.67,0,0,0,8.24,22.59q8.25,9.63,22.74,9.63a62.83,62.83,0,0,0,9.34-.81,105.52,105.52,0,0,1-1.06-14.79,104.08,104.08,0,0,0-1.49-16.48h20q-.57,10.44-.57,21Q330.71,170.33,331.28,183.28Z"/><path class="a" d="M419.4,159q0,27-46,27-8,0-24.9-.41.92-20.47.92-46.19,0-24.69-.92-42.12h11.46q3.25,0,10.93-.2t12-.21q31.34,0,31.34,19.54,0,15.06-16.06,19.94v1A30.56,30.56,0,0,1,413,143.77Q419.41,148.89,419.4,159Zm-24.26-37.23q0-12.15-15.84-12.14a73.5,73.5,0,0,0-12.94,1q.76,6.86.77,23.54c1.79.09,3.68.14,5.66.14Q395.14,134.31,395.14,121.76Zm5.16,38q0-13.5-24.68-13.5c-3.25,0-6.06.12-8.42.34q0,14.17.64,26.12a35.55,35.55,0,0,0,7.21.54q13.09,0,19.17-3T400.3,159.74Z"/><path class="a" d="M495.78,170.66l-.56,14.92H435q.92-20.47.92-46.19,0-24.69-.92-42.12h57.43l-.78,14.86Q470.45,111,453.2,111q.72,9.43.71,22.25,14.79,0,31.62-.75v14.18Q469,146,453.91,146q0,13.77.57,25.77Q473.86,171.81,495.78,170.66Z"/><path class="a" d="M586,185.58H565q-8.21-24-12.59-29.64t-14.14-5.63c-2.74,0-5.36,0-7.85.07q0,17.43.63,35.2H511.41q.91-20.47.92-46.19,0-24.69-.92-42.12h12.24q2.11,0,8.87-.2T545,96.86q32.46,0,32.46,21.3,0,16.89-18.53,23.54v1q7.14,1.89,12.52,10.68T586,185.58Zm-26.52-62.4q0-13.5-18.1-13.5a64.84,64.84,0,0,0-11.74.95q.78,10.52.78,27.41,3.89.14,6.57.13Q559.44,138.17,559.43,123.18Z"/></svg>
