<svg xmlns="http://www.w3.org/2000/svg" viewBox="0 0 128 128"><defs><style>.a{fill:#d8d8d8;}.b{fill:#fff;}</style></defs><title>Artboard 7</title><rect class="a" width="128" height="128"/><path class="b" d="M26.9,56.1c0-.51.36-.74.86-.74s.85.23.85.74V68.46a1,1,0,0,1-1.08,1.14c-.78,0-1.07-.31-1.52-1l-4.77-7.72a39.74,39.74,0,0,1-2-3.82c.11,1.15.25,3.66.25,6.3v5.53c0,.49-.36.74-.85.74s-.86-.25-.86-.74V56.44a1,1,0,0,1,1.13-1.08,1.49,1.49,0,0,1,1.46.86l4.54,7.37a47.48,47.48,0,0,1,2.3,4.28c-.1-1.12-.28-3.73-.28-6.32Z"/><path class="b" d="M43.73,62.49c0,4.43-2.42,7.29-6.27,7.29s-6.3-2.85-6.3-7.31,2.43-7.27,6.3-7.27S43.73,58,43.73,62.49Zm-10.79,0c0,3.47,1.77,5.72,4.52,5.72s4.48-2.21,4.48-5.83c0-3.4-1.74-5.64-4.48-5.64S32.94,59,32.94,62.49Z"/><path class="b" d="M52.24,56.1c0-.51.36-.74.84-.74s.89.23.89.74V68.86c0,.49-.38.74-.89.74a.74.74,0,0,1-.84-.74Z"/><path class="b" d="M65.25,68.77a1.21,1.21,0,0,1-2.3,0l-2.72-6.82c-.52-1.3-1.39-3.91-1.73-5,.06,1.17.27,4.42.27,7v5c0,.49-.34.72-.84.72s-.83-.23-.83-.72V56.42a1,1,0,0,1,1.15-1.06,1.34,1.34,0,0,1,1.44,1L63,64.63A26.86,26.86,0,0,1,64.12,68a29.82,29.82,0,0,1,1.13-3.39l3.26-8.24a1.39,1.39,0,0,1,1.5-1,1,1,0,0,1,1.13,1.06V68.88c0,.49-.36.72-.83.72s-.84-.23-.84-.72v-5c0-2.56.21-5.78.28-7-.34,1.15-1.22,3.73-1.71,5Z"/><path class="b" d="M75,69.1a.7.7,0,0,1-.71.5,1.56,1.56,0,0,1-.36,0,.8.8,0,0,1-.63-.74.85.85,0,0,1,.06-.31l4.89-12.3a1.36,1.36,0,0,1,2.52,0l4.9,12.34a.57.57,0,0,1,.07.3.77.77,0,0,1-.64.72,1,1,0,0,1-.33.06.75.75,0,0,1-.74-.51l-1.42-3.72H76.41Zm7.07-5.23-2-5.24c-.19-.52-.39-1.09-.56-1.71A15.28,15.28,0,0,1,79,58.65l-2,5.22Z"/><path class="b" d="M97.42,64.36c0-.31-.09-.5-.47-.5H94.59a.68.68,0,0,1-.72-.76.7.7,0,0,1,.72-.79h2.9c1.06,0,1.48.47,1.48,1.56V69a.7.7,0,0,1-.76.78c-.48,0-.77-.26-.77-.67v-.47a7.06,7.06,0,0,1,0-.74,2.78,2.78,0,0,1-.52.69,5,5,0,0,1-3.3,1.22c-4,0-6.32-2.93-6.32-7.29s2.35-7.27,6.27-7.27a5.18,5.18,0,0,1,5.06,3,.81.81,0,0,1,.09.38.8.8,0,0,1-.56.72,1.39,1.39,0,0,1-.45.09A.77.77,0,0,1,97,58.9a3.37,3.37,0,0,0-3.38-2.14c-2.76,0-4.48,2.23-4.48,5.73S91,68.2,93.71,68.2a3.49,3.49,0,0,0,3.71-3.44Z"/><path class="b" d="M103.41,67.35c0,.41.27.57.67.57h6.44a.7.7,0,0,1,.72.78.72.72,0,0,1-.72.79h-7c-1.28,0-1.84-.56-1.84-1.93V57.41c0-1.39.56-1.95,1.84-1.95h6.8a.7.7,0,0,1,.72.78.71.71,0,0,1-.72.79H104c-.43,0-.61.2-.61.63v3.73h6.14a.69.69,0,0,1,.7.77.7.7,0,0,1-.7.76h-6.14Z"/></svg>